<svg width="20" height="16" viewBox="0 0 20 16" fill="none" xmlns="http://www.w3.org/2000/svg">
<path d="M19.75 1.89169C19.0326 2.21019 18.2615 2.42469 17.4523 2.52137C18.2786 2.02656 18.9131 1.2425 19.2113 0.308125C18.4386 0.766375 17.5823 1.0995 16.6706 1.27906C15.9418 0.5015 14.901 0.015625 13.7505 0.015625C11.1676 0.015625 9.26956 2.4255 9.85294 4.92719C6.529 4.76062 3.58125 3.16812 1.60769 0.747687C0.559563 2.54575 1.06413 4.89794 2.84513 6.08906C2.19025 6.06794 1.57275 5.88837 1.03406 5.58856C0.990188 7.44187 2.31863 9.17575 4.24263 9.56169C3.67956 9.71444 3.06288 9.75019 2.43563 9.62994C2.94425 11.2192 4.42138 12.3754 6.17313 12.4079C4.49125 13.7266 2.37225 14.3156 0.25 14.0654C2.02044 15.2004 4.124 15.8626 6.38275 15.8626C13.8106 15.8626 18.0072 9.58931 17.7537 3.96275C18.5353 3.39806 19.2138 2.69362 19.75 1.89169Z" fill="#EBEBEB"/>
</svg>
