<svg width="21" height="20" viewBox="0 0 21 20" fill="none" xmlns="http://www.w3.org/2000/svg">
<path d="M10.4004 1.94652C13.0036 1.94652 13.3124 1.95627 14.341 2.0034C16.9833 2.12365 18.2175 3.37734 18.3377 6.00009C18.3848 7.0279 18.3938 7.33665 18.3938 9.9399C18.3938 12.544 18.384 12.8519 18.3377 13.8797C18.2166 16.5 16.9857 17.7561 14.341 17.8764C13.3124 17.9235 13.0053 17.9333 10.4004 17.9333C7.79714 17.9333 7.48839 17.9235 6.46058 17.8764C3.81183 17.7553 2.58414 16.496 2.46389 13.8789C2.41677 12.8511 2.40702 12.5431 2.40702 9.93909C2.40702 7.33584 2.41758 7.0279 2.46389 5.99927C2.58495 3.37734 3.81589 2.12284 6.46058 2.00259C7.4892 1.95627 7.79714 1.94652 10.4004 1.94652ZM10.4004 0.189087C7.75245 0.189087 7.42095 0.200462 6.38095 0.247587C2.84008 0.410087 0.872203 2.37471 0.709703 5.91884C0.661766 6.95965 0.650391 7.29115 0.650391 9.93909C0.650391 12.587 0.661766 12.9193 0.708891 13.9593C0.871391 17.5002 2.83602 19.4681 6.38014 19.6306C7.42095 19.6777 7.75245 19.6891 10.4004 19.6891C13.0483 19.6891 13.3806 19.6777 14.4206 19.6306C17.9583 19.4681 19.931 17.5035 20.0911 13.9593C20.139 12.9193 20.1504 12.587 20.1504 9.93909C20.1504 7.29115 20.139 6.95965 20.0919 5.91965C19.9326 2.38202 17.9656 0.410899 14.4215 0.248399C13.3806 0.200462 13.0483 0.189087 10.4004 0.189087ZM10.4004 4.93246C7.63545 4.93246 5.39377 7.17415 5.39377 9.93909C5.39377 12.704 7.63545 14.9465 10.4004 14.9465C13.1653 14.9465 15.407 12.7048 15.407 9.93909C15.407 7.17415 13.1653 4.93246 10.4004 4.93246ZM10.4004 13.1891C8.60558 13.1891 7.15039 11.7347 7.15039 9.93909C7.15039 8.14427 8.60558 6.68909 10.4004 6.68909C12.1952 6.68909 13.6504 8.14427 13.6504 9.93909C13.6504 11.7347 12.1952 13.1891 10.4004 13.1891ZM15.6053 3.56502C14.9585 3.56502 14.4345 4.08909 14.4345 4.73502C14.4345 5.38096 14.9585 5.90502 15.6053 5.90502C16.2512 5.90502 16.7745 5.38096 16.7745 4.73502C16.7745 4.08909 16.2512 3.56502 15.6053 3.56502Z" fill="#4F4F4F"/>
</svg>
