<svg width="55" height="27" viewBox="0 0 55 27" fill="none" xmlns="http://www.w3.org/2000/svg">
<circle cx="49.6904" cy="21.7016" r="4.5" fill="#4F4F4F"/>
<path d="M10.0181 26.0857C7.96314 26.0857 6.08795 25.816 4.39257 25.2766C2.69719 24.7114 1.233 23.928 0 22.9261V18.4565H6.12648V21.2693C7.17967 21.8601 8.48974 22.1555 10.0567 22.1555C12.3686 22.1555 13.5245 21.2051 13.5245 19.3042C13.5245 18.662 13.3318 18.1226 12.9465 17.6859C12.5612 17.2235 12.0475 16.8382 11.4053 16.5299C10.7631 16.196 9.73559 15.7208 8.32277 15.1043C6.42189 14.308 4.89348 13.5502 3.73754 12.8309C2.60729 12.1117 1.73391 11.2897 1.11741 10.3649C0.500907 9.41449 0.192657 8.27139 0.192657 6.93564C0.192657 4.64945 1.10456 2.92838 2.92838 1.77244C4.77789 0.590814 7.1283 0 9.97962 0C11.9832 0 13.7172 0.295407 15.1813 0.886221C16.6455 1.45135 17.9428 2.22197 19.073 3.1981V7.24389H12.9465V4.70082C12.0732 4.18707 10.9814 3.9302 9.67137 3.9302C7.35949 3.9302 6.20355 4.85495 6.20355 6.70445C6.20355 7.42371 6.43473 8.04021 6.89711 8.55396C7.38517 9.06771 7.9503 9.47871 8.59249 9.78696C9.23468 10.0952 10.1209 10.4805 11.2512 10.9429C13.4346 11.842 15.0529 12.5869 16.1061 13.1777C17.185 13.7685 18.0198 14.5263 18.6106 15.4511C19.2014 16.3501 19.4969 17.5318 19.4969 18.9959C19.4969 20.3574 19.1244 21.5775 18.3794 22.6564C17.6602 23.7096 16.5813 24.5445 15.1428 25.161C13.73 25.7775 12.0218 26.0857 10.0181 26.0857Z" fill="#1D1D1D"/>
<path d="M19.4132 21.6161H20.3379C21.3397 21.6161 21.8406 21.1409 21.8406 20.1904V5.8953C21.8406 4.94486 21.3397 4.46964 20.3379 4.46964H19.4132V0.577972H29.6625V4.50817H29.2001C28.7634 4.50817 28.4423 4.63661 28.2368 4.89348C28.0313 5.12467 27.9286 5.45861 27.9286 5.8953V11.8291L34.8642 4.31551H33.2074V0.577972H42.9943V4.46964H41.6458C41.132 4.46964 40.7338 4.5467 40.4513 4.70082C40.1944 4.82926 39.9247 5.04761 39.6421 5.35586L34.0551 11.2897L40.2201 20.6913C40.4256 21.0253 40.6696 21.2693 40.9522 21.4234C41.2604 21.5519 41.6458 21.6161 42.1081 21.6161H43.3026V25.5077H32.9377V21.6161H34.9798L30.5873 14.8346L27.9286 17.6859V20.1904C27.9286 21.1409 28.3396 21.6161 29.1616 21.6161H29.6625V25.5077H19.4132V21.6161Z" fill="#1D1D1D"/>
</svg>
