<svg width="21" height="20" viewBox="0 0 21 20" fill="none" xmlns="http://www.w3.org/2000/svg">
<path d="M10.6006 0.189453C5.21696 0.189453 0.850586 4.55502 0.850586 9.93945C0.850586 14.2473 3.64396 17.902 7.51877 19.1914C8.00546 19.2816 8.16309 18.9793 8.16309 18.7226V16.9075C5.45096 17.4973 4.88627 15.757 4.88627 15.757C4.44265 14.63 3.80321 14.3302 3.80321 14.3302C2.9184 13.7249 3.87065 13.7379 3.87065 13.7379C4.84971 13.8061 5.36484 14.743 5.36484 14.743C6.23421 16.2331 7.64552 15.8025 8.20209 15.553C8.28902 14.9233 8.54171 14.4927 8.82121 14.2498C6.6559 14.002 4.37927 13.1659 4.37927 9.43083C4.37927 8.36564 4.76034 7.49627 5.38352 6.81377C5.28277 6.56758 4.94884 5.57552 5.47859 4.23327C5.47859 4.23327 6.29759 3.97164 8.16065 5.23264C8.93821 5.01652 9.77184 4.90845 10.6006 4.90439C11.4293 4.90845 12.2638 5.01652 13.043 5.23264C14.9044 3.97164 15.7218 4.23327 15.7218 4.23327C16.2523 5.57633 15.9184 6.56839 15.8176 6.81377C16.4433 7.49627 16.8211 8.36645 16.8211 9.43083C16.8211 13.1756 14.5404 14.0003 12.3694 14.2416C12.7188 14.5439 13.0381 15.137 13.0381 16.047V18.7226C13.0381 18.9818 13.1941 19.2865 13.6889 19.1906C17.5605 17.8995 20.3506 14.2457 20.3506 9.93945C20.3506 4.55502 15.985 0.189453 10.6006 0.189453Z" fill="#EBEBEB"/>
</svg>
