<svg width="20" height="16" viewBox="0 0 20 16" fill="none" xmlns="http://www.w3.org/2000/svg">
<path d="M19.75 1.89157C19.0326 2.21007 18.2615 2.42457 17.4523 2.52125C18.2786 2.02644 18.9131 1.24238 19.2113 0.308003C18.4386 0.766253 17.5823 1.09938 16.6706 1.27894C15.9418 0.501378 14.901 0.0155029 13.7505 0.0155029C11.1676 0.0155029 9.26956 2.42538 9.85294 4.92706C6.529 4.7605 3.58125 3.168 1.60769 0.747565C0.559563 2.54563 1.06413 4.89781 2.84513 6.08894C2.19025 6.06781 1.57275 5.88825 1.03406 5.58844C0.990188 7.44175 2.31863 9.17563 4.24263 9.56156C3.67956 9.71431 3.06288 9.75006 2.43563 9.62981C2.94425 11.2191 4.42138 12.3753 6.17313 12.4078C4.49125 13.7264 2.37225 14.3155 0.25 14.0653C2.02044 15.2003 4.124 15.8625 6.38275 15.8625C13.8106 15.8625 18.0072 9.58919 17.7537 3.96263C18.5353 3.39794 19.2138 2.6935 19.75 1.89157Z" fill="#4F4F4F"/>
</svg>
