<svg width="21" height="20" viewBox="0 0 21 20" fill="none" xmlns="http://www.w3.org/2000/svg">
<path d="M10.6006 0.188965C5.21696 0.188965 0.850586 4.55453 0.850586 9.93897C0.850586 14.2468 3.64396 17.9015 7.51877 19.1909C8.00546 19.2811 8.16309 18.9788 8.16309 18.7221V16.907C5.45096 17.4968 4.88627 15.7565 4.88627 15.7565C4.44265 14.6295 3.80321 14.3297 3.80321 14.3297C2.9184 13.7244 3.87065 13.7374 3.87065 13.7374C4.84971 13.8057 5.36484 14.7425 5.36484 14.7425C6.23421 16.2326 7.64552 15.802 8.20209 15.5525C8.28902 14.9228 8.54171 14.4922 8.82121 14.2493C6.6559 14.0015 4.37927 13.1654 4.37927 9.43034C4.37927 8.36515 4.76034 7.49578 5.38352 6.81328C5.28277 6.56709 4.94884 5.57503 5.47859 4.23278C5.47859 4.23278 6.29759 3.97115 8.16065 5.23215C8.93821 5.01603 9.77184 4.90797 10.6006 4.9039C11.4293 4.90797 12.2638 5.01603 13.043 5.23215C14.9044 3.97115 15.7218 4.23278 15.7218 4.23278C16.2523 5.57584 15.9184 6.5679 15.8176 6.81328C16.4433 7.49578 16.8211 8.36596 16.8211 9.43034C16.8211 13.1752 14.5404 13.9998 12.3694 14.2412C12.7188 14.5434 13.0381 15.1365 13.0381 16.0465V18.7221C13.0381 18.9813 13.1941 19.286 13.6889 19.1901C17.5605 17.899 20.3506 14.2452 20.3506 9.93897C20.3506 4.55453 15.985 0.188965 10.6006 0.188965Z" fill="#4F4F4F"/>
</svg>
