<svg width="21" height="20" viewBox="0 0 21 20" fill="none" xmlns="http://www.w3.org/2000/svg">
<path d="M10.4004 1.94689C13.0036 1.94689 13.3124 1.95664 14.341 2.00377C16.9833 2.12402 18.2175 3.3777 18.3377 6.00045C18.3848 7.02827 18.3938 7.33702 18.3938 9.94027C18.3938 12.5443 18.384 12.8523 18.3377 13.8801C18.2166 16.5004 16.9857 17.7565 14.341 17.8768C13.3124 17.9239 13.0053 17.9336 10.4004 17.9336C7.79714 17.9336 7.48839 17.9239 6.46058 17.8768C3.81183 17.7557 2.58414 16.4963 2.46389 13.8793C2.41677 12.8515 2.40702 12.5435 2.40702 9.93945C2.40702 7.3362 2.41758 7.02827 2.46389 5.99964C2.58495 3.3777 3.81589 2.1232 6.46058 2.00295C7.4892 1.95664 7.79714 1.94689 10.4004 1.94689ZM10.4004 0.189453C7.75245 0.189453 7.42095 0.200828 6.38095 0.247953C2.84008 0.410453 0.872203 2.37508 0.709703 5.9192C0.661766 6.96002 0.650391 7.29152 0.650391 9.93945C0.650391 12.5874 0.661766 12.9197 0.708891 13.9597C0.871391 17.5006 2.83602 19.4685 6.38014 19.631C7.42095 19.6781 7.75245 19.6895 10.4004 19.6895C13.0483 19.6895 13.3806 19.6781 14.4206 19.631C17.9583 19.4685 19.931 17.5038 20.0911 13.9597C20.139 12.9197 20.1504 12.5874 20.1504 9.93945C20.1504 7.29152 20.139 6.96002 20.0919 5.92002C19.9326 2.38239 17.9656 0.411266 14.4215 0.248766C13.3806 0.200828 13.0483 0.189453 10.4004 0.189453ZM10.4004 4.93283C7.63545 4.93283 5.39377 7.17452 5.39377 9.93945C5.39377 12.7044 7.63545 14.9469 10.4004 14.9469C13.1653 14.9469 15.407 12.7052 15.407 9.93945C15.407 7.17452 13.1653 4.93283 10.4004 4.93283ZM10.4004 13.1895C8.60558 13.1895 7.15039 11.7351 7.15039 9.93945C7.15039 8.14464 8.60558 6.68945 10.4004 6.68945C12.1952 6.68945 13.6504 8.14464 13.6504 9.93945C13.6504 11.7351 12.1952 13.1895 10.4004 13.1895ZM15.6053 3.56539C14.9585 3.56539 14.4345 4.08945 14.4345 4.73539C14.4345 5.38133 14.9585 5.90539 15.6053 5.90539C16.2512 5.90539 16.7745 5.38133 16.7745 4.73539C16.7745 4.08945 16.2512 3.56539 15.6053 3.56539Z" fill="#EBEBEB"/>
</svg>
